<svg xmlns="http://www.w3.org/2000/svg" viewBox="0 0 360 230"><rect width="360" height="230" rx="28" fill="#F3FAF1"/><circle cx="286" cy="48" r="24" fill="#FFE8A6"/><path d="M0 119c40-39 71-34 109-2 32-38 69-42 112-1 44-33 91-31 139 4v110H0z" fill="#CDEDC9"/><path d="M0 169h360v61H0z" fill="#72BD63"/><path d="M-30 224C80 185 230 190 390 218M-18 224C80 191 230 195 390 218M-6 224C80 197 230 200 390 218" stroke="#0F7F3E" stroke-width="9" fill="none" stroke-linecap="round"/><rect x="52" y="117" width="50" height="36" rx="6" fill="#fff"/><path d="M46 119l31-24 32 24z" fill="#087A38"/><rect x="265" y="145" width="42" height="22" rx="6" fill="#159447"/><circle cx="274" cy="171" r="9" fill="#2B3B2B"/><circle cx="304" cy="171" r="9" fill="#2B3B2B"/></svg>
